G75*
%MOIN*%
%OFA0B0*%
%FSLAX25Y25*%
%IPPOS*%
%LPD*%
%AMOC8*
5,1,8,0,0,1.08239X$1,22.5*
%
%ADD10R,0.05906X0.04724*%
%ADD11C,0.06000*%
%ADD12R,0.07795X0.07795*%
%ADD13C,0.07618*%
%ADD14C,0.07795*%
%ADD15OC8,0.05200*%
%ADD16R,0.06299X0.05118*%
%ADD17R,0.05118X0.06299*%
%ADD18R,0.03100X0.03500*%
%ADD19C,0.05000*%
%ADD20C,0.01600*%
%ADD21R,0.03962X0.03962*%
D10*
X0012705Y0073565D03*
X0024122Y0073565D03*
D11*
X0018500Y0091478D02*
X0012500Y0091478D01*
X0012500Y0101478D02*
X0018500Y0101478D01*
X0019445Y0038250D02*
X0013445Y0038250D01*
X0013445Y0028250D02*
X0019445Y0028250D01*
X0070571Y0027148D02*
X0076571Y0027148D01*
X0076571Y0037148D02*
X0070571Y0037148D01*
D12*
X0052193Y0102699D03*
D13*
X0044319Y0079077D03*
D14*
X0052193Y0055455D03*
X0100224Y0055455D03*
X0100224Y0102699D03*
D15*
X0108768Y0037148D03*
X0108768Y0027148D03*
D16*
X0104949Y0075967D03*
X0104949Y0083447D03*
D17*
X0024358Y0054786D03*
X0016878Y0054786D03*
D18*
X0036109Y0041541D03*
X0039909Y0033541D03*
X0032309Y0033541D03*
D19*
X0007705Y0018171D03*
X0118413Y0114313D03*
D20*
X0114676Y0112623D02*
X0114938Y0111991D01*
X0116091Y0110837D01*
X0117598Y0110213D01*
X0119229Y0110213D01*
X0119440Y0110301D01*
X0119440Y0019861D01*
X0011443Y0019861D01*
X0011181Y0020494D01*
X0010027Y0021647D01*
X0008520Y0022271D01*
X0006993Y0022271D01*
X0006993Y0112623D01*
X0114676Y0112623D01*
X0114697Y0112570D02*
X0006993Y0112570D01*
X0006993Y0110972D02*
X0115956Y0110972D01*
X0119440Y0109373D02*
X0006993Y0109373D01*
X0006993Y0107775D02*
X0047211Y0107775D01*
X0047633Y0108197D02*
X0046695Y0107259D01*
X0046695Y0098139D01*
X0047633Y0097201D01*
X0056753Y0097201D01*
X0057691Y0098139D01*
X0057691Y0107259D01*
X0056753Y0108197D01*
X0047633Y0108197D01*
X0046695Y0106176D02*
X0006993Y0106176D01*
X0006993Y0104578D02*
X0009094Y0104578D01*
X0008600Y0104084D02*
X0009894Y0105378D01*
X0011585Y0106078D01*
X0019415Y0106078D01*
X0021106Y0105378D01*
X0022400Y0104084D01*
X0023100Y0102393D01*
X0023100Y0100563D01*
X0022400Y0098873D01*
X0021106Y0097579D01*
X0019415Y0096878D01*
X0011585Y0096878D01*
X0009894Y0097579D01*
X0008600Y0098873D01*
X0007900Y0100563D01*
X0007900Y0102393D01*
X0008600Y0104084D01*
X0008143Y0102979D02*
X0006993Y0102979D01*
X0006993Y0101381D02*
X0007900Y0101381D01*
X0008224Y0099782D02*
X0006993Y0099782D01*
X0006993Y0098184D02*
X0009289Y0098184D01*
X0006993Y0096585D02*
X0119440Y0096585D01*
X0119440Y0094987D02*
X0021497Y0094987D01*
X0021106Y0095378D02*
X0022400Y0094084D01*
X0023100Y0092393D01*
X0023100Y0090563D01*
X0022400Y0088873D01*
X0021106Y0087579D01*
X0019415Y0086878D01*
X0011585Y0086878D01*
X0009894Y0087579D01*
X0008600Y0088873D01*
X0007900Y0090563D01*
X0007900Y0092393D01*
X0008600Y0094084D01*
X0009894Y0095378D01*
X0011585Y0096078D01*
X0019415Y0096078D01*
X0021106Y0095378D01*
X0022688Y0093388D02*
X0119440Y0093388D01*
X0119440Y0091790D02*
X0023100Y0091790D01*
X0022946Y0090191D02*
X0119440Y0090191D01*
X0119440Y0088593D02*
X0022120Y0088593D01*
X0019694Y0086994D02*
X0100525Y0086994D01*
X0100199Y0086669D02*
X0100199Y0084390D01*
X0096204Y0084390D01*
X0095322Y0084025D01*
X0094646Y0083350D01*
X0090709Y0079413D01*
X0090344Y0078531D01*
X0090344Y0065765D01*
X0090709Y0064883D01*
X0091385Y0064208D01*
X0096293Y0059299D01*
X0095564Y0058569D01*
X0094727Y0056548D01*
X0094727Y0054361D01*
X0095564Y0052341D01*
X0097110Y0050794D01*
X0099131Y0049957D01*
X0101318Y0049957D01*
X0103339Y0050794D01*
X0104885Y0052341D01*
X0105722Y0054361D01*
X0105722Y0056548D01*
X0104885Y0058569D01*
X0103339Y0060116D01*
X0101506Y0060875D01*
X0095144Y0067236D01*
X0095144Y0077059D01*
X0097675Y0079590D01*
X0100601Y0079590D01*
X0100199Y0079188D01*
X0100199Y0072745D01*
X0101136Y0071808D01*
X0102549Y0071808D01*
X0102549Y0061434D01*
X0102914Y0060552D01*
X0106092Y0057374D01*
X0106092Y0040412D01*
X0104568Y0038887D01*
X0104568Y0035408D01*
X0107028Y0032948D01*
X0110507Y0032948D01*
X0112968Y0035408D01*
X0112968Y0038887D01*
X0110892Y0040963D01*
X0110892Y0058846D01*
X0110527Y0059728D01*
X0109852Y0060403D01*
X0107349Y0062906D01*
X0107349Y0071808D01*
X0108761Y0071808D01*
X0109698Y0072745D01*
X0109698Y0079188D01*
X0109180Y0079707D01*
X0109698Y0080225D01*
X0109698Y0086669D01*
X0108761Y0087606D01*
X0101136Y0087606D01*
X0100199Y0086669D01*
X0100199Y0085396D02*
X0006993Y0085396D01*
X0006993Y0086994D02*
X0011306Y0086994D01*
X0008880Y0088593D02*
X0006993Y0088593D01*
X0006993Y0090191D02*
X0008054Y0090191D01*
X0007900Y0091790D02*
X0006993Y0091790D01*
X0006993Y0093388D02*
X0008312Y0093388D01*
X0009503Y0094987D02*
X0006993Y0094987D01*
X0006993Y0083797D02*
X0041580Y0083797D01*
X0041255Y0083662D02*
X0039733Y0082141D01*
X0038910Y0080153D01*
X0038910Y0078001D01*
X0039185Y0077337D01*
X0037813Y0075965D01*
X0028675Y0075965D01*
X0028675Y0076590D01*
X0027738Y0077527D01*
X0020507Y0077527D01*
X0019569Y0076590D01*
X0019569Y0070540D01*
X0020507Y0069603D01*
X0027738Y0069603D01*
X0028675Y0070540D01*
X0028675Y0071165D01*
X0039284Y0071165D01*
X0040167Y0071530D01*
X0042579Y0073943D01*
X0043243Y0073668D01*
X0045395Y0073668D01*
X0047383Y0074491D01*
X0048904Y0076013D01*
X0049728Y0078001D01*
X0049728Y0080153D01*
X0048904Y0082141D01*
X0047383Y0083662D01*
X0045395Y0084486D01*
X0043243Y0084486D01*
X0041255Y0083662D01*
X0039791Y0082199D02*
X0006993Y0082199D01*
X0006993Y0080600D02*
X0039095Y0080600D01*
X0038910Y0079002D02*
X0006993Y0079002D01*
X0006993Y0077403D02*
X0008965Y0077403D01*
X0009089Y0077527D02*
X0008152Y0076590D01*
X0008152Y0070540D01*
X0009089Y0069603D01*
X0010305Y0069603D01*
X0010305Y0067064D01*
X0010670Y0066182D01*
X0011969Y0064883D01*
X0011969Y0064883D01*
X0012644Y0064208D01*
X0013527Y0063842D01*
X0024821Y0063842D01*
X0039918Y0048745D01*
X0036065Y0044891D01*
X0033896Y0044891D01*
X0032959Y0043954D01*
X0032959Y0039129D01*
X0033896Y0038191D01*
X0038321Y0038191D01*
X0039259Y0039129D01*
X0039259Y0041297D01*
X0045347Y0047385D01*
X0048917Y0050956D01*
X0049079Y0050794D01*
X0051099Y0049957D01*
X0053286Y0049957D01*
X0055307Y0050794D01*
X0056854Y0052341D01*
X0057691Y0054361D01*
X0057691Y0056548D01*
X0056854Y0058569D01*
X0055307Y0060116D01*
X0053286Y0060952D01*
X0051099Y0060952D01*
X0049079Y0060116D01*
X0047532Y0058569D01*
X0046695Y0056548D01*
X0046695Y0055522D01*
X0043312Y0052139D01*
X0027174Y0068277D01*
X0026292Y0068642D01*
X0015105Y0068642D01*
X0015105Y0069603D01*
X0016320Y0069603D01*
X0017257Y0070540D01*
X0017257Y0076590D01*
X0016320Y0077527D01*
X0009089Y0077527D01*
X0008152Y0075805D02*
X0006993Y0075805D01*
X0006993Y0074206D02*
X0008152Y0074206D01*
X0008152Y0072608D02*
X0006993Y0072608D01*
X0006993Y0071009D02*
X0008152Y0071009D01*
X0006993Y0069411D02*
X0010305Y0069411D01*
X0010305Y0067812D02*
X0006993Y0067812D01*
X0006993Y0066213D02*
X0010657Y0066213D01*
X0012237Y0064615D02*
X0006993Y0064615D01*
X0006993Y0063016D02*
X0025647Y0063016D01*
X0027245Y0061418D02*
X0006993Y0061418D01*
X0006993Y0059819D02*
X0028844Y0059819D01*
X0028517Y0058598D02*
X0027580Y0059535D01*
X0021136Y0059535D01*
X0020618Y0059017D01*
X0020100Y0059535D01*
X0013656Y0059535D01*
X0012719Y0058598D01*
X0012719Y0050973D01*
X0013656Y0050036D01*
X0014478Y0050036D01*
X0014478Y0042850D01*
X0012530Y0042850D01*
X0010839Y0042150D01*
X0009545Y0040856D01*
X0008845Y0039165D01*
X0008845Y0037335D01*
X0009545Y0035644D01*
X0010839Y0034350D01*
X0012530Y0033650D01*
X0020360Y0033650D01*
X0022051Y0034350D01*
X0023345Y0035644D01*
X0024045Y0037335D01*
X0024045Y0038411D01*
X0029159Y0033297D01*
X0029159Y0031129D01*
X0029637Y0030650D01*
X0023430Y0030650D01*
X0023345Y0030856D01*
X0022051Y0032150D01*
X0020360Y0032850D01*
X0012530Y0032850D01*
X0010839Y0032150D01*
X0009545Y0030856D01*
X0008845Y0029165D01*
X0008845Y0027335D01*
X0009545Y0025644D01*
X0010839Y0024350D01*
X0012530Y0023650D01*
X0020360Y0023650D01*
X0022051Y0024350D01*
X0023345Y0025644D01*
X0023430Y0025850D01*
X0035095Y0025850D01*
X0035977Y0026215D01*
X0039953Y0030191D01*
X0042121Y0030191D01*
X0043059Y0031129D01*
X0043059Y0032346D01*
X0045856Y0032346D01*
X0045856Y0032102D01*
X0046793Y0031165D01*
X0052081Y0031165D01*
X0053018Y0032102D01*
X0053018Y0037390D01*
X0052081Y0038327D01*
X0046793Y0038327D01*
X0045856Y0037390D01*
X0045856Y0037146D01*
X0040636Y0037146D01*
X0040021Y0036891D01*
X0037696Y0036891D01*
X0036759Y0035954D01*
X0036759Y0033786D01*
X0035459Y0032486D01*
X0035459Y0035954D01*
X0034521Y0036891D01*
X0032353Y0036891D01*
X0026758Y0042486D01*
X0026758Y0050036D01*
X0027580Y0050036D01*
X0028517Y0050973D01*
X0028517Y0058598D01*
X0028517Y0058221D02*
X0030442Y0058221D01*
X0032041Y0056622D02*
X0028517Y0056622D01*
X0028517Y0055024D02*
X0033639Y0055024D01*
X0035238Y0053425D02*
X0028517Y0053425D01*
X0028517Y0051827D02*
X0036836Y0051827D01*
X0038435Y0050228D02*
X0027773Y0050228D01*
X0026758Y0048630D02*
X0039803Y0048630D01*
X0038204Y0047031D02*
X0026758Y0047031D01*
X0026758Y0045433D02*
X0036606Y0045433D01*
X0032959Y0043834D02*
X0026758Y0043834D01*
X0027008Y0042236D02*
X0032959Y0042236D01*
X0032959Y0040637D02*
X0028607Y0040637D01*
X0030205Y0039039D02*
X0033049Y0039039D01*
X0031804Y0037440D02*
X0045906Y0037440D01*
X0049437Y0034746D02*
X0041113Y0034746D01*
X0039909Y0033541D01*
X0034617Y0028250D01*
X0016445Y0028250D01*
X0020856Y0032645D02*
X0029159Y0032645D01*
X0029241Y0031046D02*
X0023154Y0031046D01*
X0021792Y0034243D02*
X0028213Y0034243D01*
X0026614Y0035842D02*
X0023426Y0035842D01*
X0024045Y0037440D02*
X0025016Y0037440D01*
X0024358Y0041492D02*
X0032309Y0033541D01*
X0035459Y0034243D02*
X0036759Y0034243D01*
X0035618Y0032645D02*
X0035459Y0032645D01*
X0035459Y0035842D02*
X0036759Y0035842D01*
X0039169Y0039039D02*
X0066375Y0039039D01*
X0066671Y0039753D02*
X0065971Y0038063D01*
X0065971Y0036233D01*
X0066671Y0034542D01*
X0067965Y0033248D01*
X0069656Y0032548D01*
X0077486Y0032548D01*
X0079177Y0033248D01*
X0080471Y0034542D01*
X0081171Y0036233D01*
X0081171Y0038063D01*
X0080471Y0039753D01*
X0079177Y0041047D01*
X0077486Y0041748D01*
X0069656Y0041748D01*
X0067965Y0041047D01*
X0066671Y0039753D01*
X0067555Y0040637D02*
X0039259Y0040637D01*
X0040197Y0042236D02*
X0106092Y0042236D01*
X0106092Y0043834D02*
X0041796Y0043834D01*
X0043394Y0045433D02*
X0106092Y0045433D01*
X0106092Y0047031D02*
X0044993Y0047031D01*
X0046591Y0048630D02*
X0106092Y0048630D01*
X0106092Y0050228D02*
X0101973Y0050228D01*
X0104371Y0051827D02*
X0106092Y0051827D01*
X0106092Y0053425D02*
X0105334Y0053425D01*
X0105722Y0055024D02*
X0106092Y0055024D01*
X0106092Y0056622D02*
X0105691Y0056622D01*
X0105245Y0058221D02*
X0105029Y0058221D01*
X0103647Y0059819D02*
X0103635Y0059819D01*
X0102556Y0061418D02*
X0100962Y0061418D01*
X0102549Y0063016D02*
X0099364Y0063016D01*
X0097765Y0064615D02*
X0102549Y0064615D01*
X0102549Y0066213D02*
X0096167Y0066213D01*
X0095144Y0067812D02*
X0102549Y0067812D01*
X0102549Y0069411D02*
X0095144Y0069411D01*
X0095144Y0071009D02*
X0102549Y0071009D01*
X0100337Y0072608D02*
X0095144Y0072608D01*
X0095144Y0074206D02*
X0100199Y0074206D01*
X0100199Y0075805D02*
X0095144Y0075805D01*
X0095488Y0077403D02*
X0100199Y0077403D01*
X0100199Y0079002D02*
X0097087Y0079002D01*
X0096681Y0081990D02*
X0103492Y0081990D01*
X0104949Y0083447D01*
X0109373Y0086994D02*
X0119440Y0086994D01*
X0119440Y0085396D02*
X0109698Y0085396D01*
X0109698Y0083797D02*
X0119440Y0083797D01*
X0119440Y0082199D02*
X0109698Y0082199D01*
X0109698Y0080600D02*
X0119440Y0080600D01*
X0119440Y0079002D02*
X0109698Y0079002D01*
X0109698Y0077403D02*
X0119440Y0077403D01*
X0119440Y0075805D02*
X0109698Y0075805D01*
X0109698Y0074206D02*
X0119440Y0074206D01*
X0119440Y0072608D02*
X0109561Y0072608D01*
X0107349Y0071009D02*
X0119440Y0071009D01*
X0119440Y0069411D02*
X0107349Y0069411D01*
X0107349Y0067812D02*
X0119440Y0067812D01*
X0119440Y0066213D02*
X0107349Y0066213D01*
X0107349Y0064615D02*
X0119440Y0064615D01*
X0119440Y0063016D02*
X0107349Y0063016D01*
X0108836Y0061418D02*
X0119440Y0061418D01*
X0119440Y0059819D02*
X0110435Y0059819D01*
X0110892Y0058221D02*
X0119440Y0058221D01*
X0119440Y0056622D02*
X0110892Y0056622D01*
X0110892Y0055024D02*
X0119440Y0055024D01*
X0119440Y0053425D02*
X0110892Y0053425D01*
X0110892Y0051827D02*
X0119440Y0051827D01*
X0119440Y0050228D02*
X0110892Y0050228D01*
X0110892Y0048630D02*
X0119440Y0048630D01*
X0119440Y0047031D02*
X0110892Y0047031D01*
X0110892Y0045433D02*
X0119440Y0045433D01*
X0119440Y0043834D02*
X0110892Y0043834D01*
X0110892Y0042236D02*
X0119440Y0042236D01*
X0119440Y0040637D02*
X0111218Y0040637D01*
X0112816Y0039039D02*
X0119440Y0039039D01*
X0119440Y0037440D02*
X0112968Y0037440D01*
X0112968Y0035842D02*
X0119440Y0035842D01*
X0119440Y0034243D02*
X0111803Y0034243D01*
X0110507Y0031348D02*
X0107028Y0031348D01*
X0104568Y0028887D01*
X0104568Y0025408D01*
X0107028Y0022948D01*
X0110507Y0022948D01*
X0112968Y0025408D01*
X0112968Y0028887D01*
X0110507Y0031348D01*
X0110809Y0031046D02*
X0119440Y0031046D01*
X0119440Y0032645D02*
X0077720Y0032645D01*
X0077486Y0031748D02*
X0079177Y0031047D01*
X0080471Y0029753D01*
X0081171Y0028063D01*
X0081171Y0026233D01*
X0080471Y0024542D01*
X0079177Y0023248D01*
X0077486Y0022548D01*
X0069656Y0022548D01*
X0067965Y0023248D01*
X0066671Y0024542D01*
X0065971Y0026233D01*
X0065971Y0028063D01*
X0066671Y0029753D01*
X0067965Y0031047D01*
X0069656Y0031748D01*
X0077486Y0031748D01*
X0079178Y0031046D02*
X0106727Y0031046D01*
X0105128Y0029448D02*
X0080597Y0029448D01*
X0081171Y0027849D02*
X0104568Y0027849D01*
X0104568Y0026251D02*
X0081171Y0026251D01*
X0080516Y0024652D02*
X0105324Y0024652D01*
X0106922Y0023054D02*
X0078707Y0023054D01*
X0068434Y0023054D02*
X0006993Y0023054D01*
X0006993Y0024652D02*
X0010537Y0024652D01*
X0009294Y0026251D02*
X0006993Y0026251D01*
X0006993Y0027849D02*
X0008845Y0027849D01*
X0008962Y0029448D02*
X0006993Y0029448D01*
X0006993Y0031046D02*
X0009736Y0031046D01*
X0012034Y0032645D02*
X0006993Y0032645D01*
X0006993Y0034243D02*
X0011098Y0034243D01*
X0009463Y0035842D02*
X0006993Y0035842D01*
X0006993Y0037440D02*
X0008845Y0037440D01*
X0008845Y0039039D02*
X0006993Y0039039D01*
X0006993Y0040637D02*
X0009455Y0040637D01*
X0011047Y0042236D02*
X0006993Y0042236D01*
X0006993Y0043834D02*
X0014478Y0043834D01*
X0014478Y0045433D02*
X0006993Y0045433D01*
X0006993Y0047031D02*
X0014478Y0047031D01*
X0014478Y0048630D02*
X0006993Y0048630D01*
X0006993Y0050228D02*
X0013464Y0050228D01*
X0012719Y0051827D02*
X0006993Y0051827D01*
X0006993Y0053425D02*
X0012719Y0053425D01*
X0012719Y0055024D02*
X0006993Y0055024D01*
X0006993Y0056622D02*
X0012719Y0056622D01*
X0012719Y0058221D02*
X0006993Y0058221D01*
X0014004Y0066242D02*
X0025815Y0066242D01*
X0043312Y0048745D01*
X0036109Y0041541D01*
X0043312Y0048745D02*
X0050022Y0055455D01*
X0052193Y0055455D01*
X0056340Y0051827D02*
X0096078Y0051827D01*
X0095114Y0053425D02*
X0057303Y0053425D01*
X0057691Y0055024D02*
X0094727Y0055024D01*
X0094757Y0056622D02*
X0057660Y0056622D01*
X0056998Y0058221D02*
X0095420Y0058221D01*
X0095773Y0059819D02*
X0055603Y0059819D01*
X0048783Y0059819D02*
X0035632Y0059819D01*
X0034033Y0061418D02*
X0094174Y0061418D01*
X0092576Y0063016D02*
X0032435Y0063016D01*
X0030836Y0064615D02*
X0090977Y0064615D01*
X0090344Y0066213D02*
X0029238Y0066213D01*
X0027639Y0067812D02*
X0090344Y0067812D01*
X0090344Y0069411D02*
X0015105Y0069411D01*
X0017257Y0071009D02*
X0019569Y0071009D01*
X0019569Y0072608D02*
X0017257Y0072608D01*
X0017257Y0074206D02*
X0019569Y0074206D01*
X0019569Y0075805D02*
X0017257Y0075805D01*
X0016444Y0077403D02*
X0020382Y0077403D01*
X0024122Y0073565D02*
X0038807Y0073565D01*
X0044319Y0079077D01*
X0048696Y0075805D02*
X0090344Y0075805D01*
X0090344Y0077403D02*
X0049480Y0077403D01*
X0049728Y0079002D02*
X0090539Y0079002D01*
X0091897Y0080600D02*
X0049543Y0080600D01*
X0048847Y0082199D02*
X0093495Y0082199D01*
X0095094Y0083797D02*
X0047058Y0083797D01*
X0039157Y0077403D02*
X0027862Y0077403D01*
X0028675Y0071009D02*
X0090344Y0071009D01*
X0090344Y0072608D02*
X0041244Y0072608D01*
X0046694Y0074206D02*
X0090344Y0074206D01*
X0092744Y0078053D02*
X0096681Y0081990D01*
X0092744Y0078053D02*
X0092744Y0066242D01*
X0100224Y0058762D01*
X0100224Y0055455D01*
X0098476Y0050228D02*
X0053941Y0050228D01*
X0050445Y0050228D02*
X0048190Y0050228D01*
X0044599Y0053425D02*
X0042026Y0053425D01*
X0040427Y0055024D02*
X0046197Y0055024D01*
X0046726Y0056622D02*
X0038829Y0056622D01*
X0037230Y0058221D02*
X0047388Y0058221D01*
X0052968Y0037440D02*
X0065971Y0037440D01*
X0066133Y0035842D02*
X0053018Y0035842D01*
X0053018Y0034243D02*
X0066970Y0034243D01*
X0069422Y0032645D02*
X0053018Y0032645D01*
X0042976Y0031046D02*
X0067964Y0031046D01*
X0066545Y0029448D02*
X0039209Y0029448D01*
X0037611Y0027849D02*
X0065971Y0027849D01*
X0065971Y0026251D02*
X0036012Y0026251D01*
X0022352Y0024652D02*
X0066626Y0024652D01*
X0080172Y0034243D02*
X0105732Y0034243D01*
X0104568Y0035842D02*
X0081009Y0035842D01*
X0081171Y0037440D02*
X0104568Y0037440D01*
X0104719Y0039039D02*
X0080767Y0039039D01*
X0079587Y0040637D02*
X0106092Y0040637D01*
X0108492Y0037423D02*
X0108768Y0037148D01*
X0108492Y0037423D02*
X0108492Y0058368D01*
X0104949Y0061912D01*
X0104949Y0075967D01*
X0101318Y0097201D02*
X0099131Y0097201D01*
X0097110Y0098038D01*
X0095564Y0099585D01*
X0094727Y0101605D01*
X0094727Y0103792D01*
X0095564Y0105813D01*
X0097110Y0107360D01*
X0099131Y0108197D01*
X0101318Y0108197D01*
X0103339Y0107360D01*
X0104885Y0105813D01*
X0105722Y0103792D01*
X0105722Y0101605D01*
X0104885Y0099585D01*
X0103339Y0098038D01*
X0101318Y0097201D01*
X0103484Y0098184D02*
X0119440Y0098184D01*
X0119440Y0099782D02*
X0104967Y0099782D01*
X0105629Y0101381D02*
X0119440Y0101381D01*
X0119440Y0102979D02*
X0105722Y0102979D01*
X0105397Y0104578D02*
X0119440Y0104578D01*
X0119440Y0106176D02*
X0104522Y0106176D01*
X0102336Y0107775D02*
X0119440Y0107775D01*
X0098113Y0107775D02*
X0057175Y0107775D01*
X0057691Y0106176D02*
X0095927Y0106176D01*
X0095052Y0104578D02*
X0057691Y0104578D01*
X0057691Y0102979D02*
X0094727Y0102979D01*
X0094820Y0101381D02*
X0057691Y0101381D01*
X0057691Y0099782D02*
X0095482Y0099782D01*
X0096965Y0098184D02*
X0057691Y0098184D01*
X0046695Y0098184D02*
X0021711Y0098184D01*
X0022776Y0099782D02*
X0046695Y0099782D01*
X0046695Y0101381D02*
X0023100Y0101381D01*
X0022857Y0102979D02*
X0046695Y0102979D01*
X0046695Y0104578D02*
X0021906Y0104578D01*
X0012705Y0073565D02*
X0012705Y0067541D01*
X0014004Y0066242D01*
X0016878Y0054786D02*
X0016878Y0038683D01*
X0016445Y0038250D01*
X0019278Y0042850D02*
X0019278Y0050036D01*
X0020100Y0050036D01*
X0020618Y0050554D01*
X0021136Y0050036D01*
X0021958Y0050036D01*
X0021958Y0042188D01*
X0020360Y0042850D01*
X0019278Y0042850D01*
X0019278Y0043834D02*
X0021958Y0043834D01*
X0021958Y0042236D02*
X0021843Y0042236D01*
X0024358Y0041492D02*
X0024358Y0054786D01*
X0020944Y0050228D02*
X0020292Y0050228D01*
X0019278Y0048630D02*
X0021958Y0048630D01*
X0021958Y0047031D02*
X0019278Y0047031D01*
X0019278Y0045433D02*
X0021958Y0045433D01*
X0010219Y0021455D02*
X0119440Y0021455D01*
X0119440Y0023054D02*
X0110613Y0023054D01*
X0112212Y0024652D02*
X0119440Y0024652D01*
X0119440Y0026251D02*
X0112968Y0026251D01*
X0112968Y0027849D02*
X0119440Y0027849D01*
X0119440Y0029448D02*
X0112407Y0029448D01*
D21*
X0049437Y0034746D03*
M02*
