G75*
%MOIN*%
%OFA0B0*%
%FSLAX25Y25*%
%IPPOS*%
%LPD*%
%AMOC8*
5,1,8,0,0,1.08239X$1,22.5*
%
%ADD10C,0.00200*%
D10*
X0012375Y0019783D02*
X0012375Y0021947D01*
X0013096Y0021947D02*
X0011653Y0021947D01*
X0013829Y0021947D02*
X0014911Y0021947D01*
X0015271Y0021587D01*
X0015271Y0020865D01*
X0014911Y0020505D01*
X0013829Y0020505D01*
X0013829Y0019783D02*
X0013829Y0021947D01*
X0016004Y0021226D02*
X0016725Y0021947D01*
X0016725Y0019783D01*
X0016004Y0019783D02*
X0017446Y0019783D01*
X0025546Y0029251D02*
X0025907Y0029612D01*
X0025907Y0029972D01*
X0025546Y0030333D01*
X0023743Y0030333D01*
X0023743Y0029972D02*
X0023743Y0030694D01*
X0023743Y0031426D02*
X0023743Y0032508D01*
X0024104Y0032869D01*
X0024825Y0032869D01*
X0025186Y0032508D01*
X0025186Y0031426D01*
X0025907Y0031426D02*
X0023743Y0031426D01*
X0024104Y0033601D02*
X0023743Y0033962D01*
X0023743Y0034683D01*
X0024104Y0035044D01*
X0024464Y0035044D01*
X0025907Y0033601D01*
X0025907Y0035044D01*
X0045333Y0036254D02*
X0046775Y0036254D01*
X0046054Y0036254D02*
X0046054Y0034090D01*
X0047508Y0034090D02*
X0048950Y0034090D01*
X0048229Y0034090D02*
X0048229Y0036254D01*
X0047508Y0035533D01*
X0065121Y0035343D02*
X0065121Y0034261D01*
X0067285Y0034261D01*
X0066564Y0034261D02*
X0066564Y0035343D01*
X0066203Y0035703D01*
X0065482Y0035703D01*
X0065121Y0035343D01*
X0065482Y0036436D02*
X0065121Y0036796D01*
X0065121Y0037518D01*
X0065482Y0037878D01*
X0065842Y0037878D01*
X0066203Y0037518D01*
X0066564Y0037878D01*
X0066924Y0037878D01*
X0067285Y0037518D01*
X0067285Y0036796D01*
X0066924Y0036436D01*
X0066203Y0037157D02*
X0066203Y0037518D01*
X0065121Y0033528D02*
X0065121Y0032807D01*
X0065121Y0033168D02*
X0066924Y0033168D01*
X0067285Y0032807D01*
X0067285Y0032446D01*
X0066924Y0032085D01*
X0084793Y0032272D02*
X0084793Y0030108D01*
X0086236Y0030108D01*
X0086968Y0030108D02*
X0088411Y0030108D01*
X0089144Y0030108D02*
X0090226Y0030108D01*
X0090586Y0030469D01*
X0090586Y0031912D01*
X0090226Y0032272D01*
X0089144Y0032272D01*
X0089144Y0030108D01*
X0087690Y0031190D02*
X0086968Y0031190D01*
X0086968Y0032272D02*
X0086968Y0030108D01*
X0086968Y0032272D02*
X0088411Y0032272D01*
X0091319Y0031551D02*
X0092040Y0032272D01*
X0092040Y0030108D01*
X0091319Y0030108D02*
X0092761Y0030108D01*
X0098236Y0072583D02*
X0098236Y0073665D01*
X0098597Y0074025D01*
X0099318Y0074025D01*
X0099679Y0073665D01*
X0099679Y0072583D01*
X0099679Y0073304D02*
X0100400Y0074025D01*
X0100400Y0074758D02*
X0100400Y0076200D01*
X0100400Y0075479D02*
X0098236Y0075479D01*
X0098957Y0074758D01*
X0098236Y0072583D02*
X0100400Y0072583D01*
X0108861Y0114476D02*
X0108861Y0116640D01*
X0109582Y0116640D02*
X0108139Y0116640D01*
X0110314Y0116640D02*
X0110314Y0114476D01*
X0110314Y0115197D02*
X0111396Y0115197D01*
X0111757Y0115558D01*
X0111757Y0116279D01*
X0111396Y0116640D01*
X0110314Y0116640D01*
X0112490Y0116279D02*
X0112850Y0116640D01*
X0113572Y0116640D01*
X0113932Y0116279D01*
X0113932Y0115919D01*
X0112490Y0114476D01*
X0113932Y0114476D01*
X0041340Y0111463D02*
X0039897Y0111463D01*
X0040619Y0111463D02*
X0040619Y0113627D01*
X0039897Y0112906D01*
X0039165Y0113627D02*
X0037722Y0112185D01*
X0038083Y0112545D02*
X0039165Y0111463D01*
X0037722Y0111463D02*
X0037722Y0113627D01*
X0024962Y0098272D02*
X0024962Y0096829D01*
X0024962Y0097551D02*
X0022798Y0097551D01*
X0023520Y0096829D01*
X0023880Y0096097D02*
X0024241Y0095736D01*
X0024241Y0094654D01*
X0024962Y0094654D02*
X0022798Y0094654D01*
X0022798Y0095736D01*
X0023159Y0096097D01*
X0023880Y0096097D01*
X0022798Y0093922D02*
X0022798Y0093201D01*
X0022798Y0093561D02*
X0024602Y0093561D01*
X0024962Y0093201D01*
X0024962Y0092840D01*
X0024602Y0092479D01*
X0021390Y0069530D02*
X0021390Y0067366D01*
X0020669Y0067366D02*
X0022112Y0067366D01*
X0020669Y0068809D02*
X0021390Y0069530D01*
X0019937Y0069169D02*
X0019576Y0069530D01*
X0018494Y0069530D01*
X0018494Y0067366D01*
X0019576Y0067366D01*
X0019937Y0067727D01*
X0019937Y0069169D01*
X0018975Y0062050D02*
X0018254Y0062050D01*
X0017893Y0061689D01*
X0017161Y0061689D02*
X0016800Y0062050D01*
X0015718Y0062050D01*
X0015718Y0059886D01*
X0015718Y0060607D02*
X0016800Y0060607D01*
X0017161Y0060968D01*
X0017161Y0061689D01*
X0016439Y0060607D02*
X0017161Y0059886D01*
X0017893Y0059886D02*
X0019336Y0061328D01*
X0019336Y0061689D01*
X0018975Y0062050D01*
X0019336Y0059886D02*
X0017893Y0059886D01*
M02*
